<?xml version="1.0" encoding="UTF-8" standalone="no"?>
<!DOCTYPE svg PUBLIC "-//W3C//DTD SVG 1.1//EN"
 "http://www.w3.org/Graphics/SVG/1.1/DTD/svg11.dtd">
<!-- Generated by graphviz version 8.0.5 (20230430.1635)
 -->
<!-- Title: Daily AWS Tips Pages: 1 -->
<svg width="1179pt" height="682pt"
 viewBox="0.00 0.00 1178.80 681.75" xmlns="http://www.w3.org/2000/svg" xmlns:xlink="http://www.w3.org/1999/xlink">
<g id="graph0" class="graph" transform="scale(1 1) rotate(0) translate(144 537.75)">
<title>Daily AWS Tips</title>
<polygon fill="white" stroke="none" points="-144,144 -144,-537.75 1034.8,-537.75 1034.8,144 -144,144"/>
<text text-anchor="middle" x="445.4" y="-5.5" font-family="Sans-Serif" font-size="15.00" fill="#2d3436">Daily AWS Tips</text>
<g id="clust1" class="cluster">
<title>cluster_Twitter</title>
<path fill="#e5f5fd" stroke="#aeb6be" d="M623.2,-212.75C623.2,-212.75 870.8,-212.75 870.8,-212.75 876.8,-212.75 882.8,-218.75 882.8,-224.75 882.8,-224.75 882.8,-373.75 882.8,-373.75 882.8,-379.75 876.8,-385.75 870.8,-385.75 870.8,-385.75 623.2,-385.75 623.2,-385.75 617.2,-385.75 611.2,-379.75 611.2,-373.75 611.2,-373.75 611.2,-224.75 611.2,-224.75 611.2,-218.75 617.2,-212.75 623.2,-212.75"/>
<text text-anchor="middle" x="636.45" y="-370.35" font-family="Sans-Serif" font-size="12.00" fill="#2d3436">Twitter</text>
</g>
<g id="clust2" class="cluster">
<title>cluster_Mastodon</title>
<path fill="#e5f5fd" stroke="#aeb6be" d="M623.2,-31.75C623.2,-31.75 870.8,-31.75 870.8,-31.75 876.8,-31.75 882.8,-37.75 882.8,-43.75 882.8,-43.75 882.8,-192.75 882.8,-192.75 882.8,-198.75 876.8,-204.75 870.8,-204.75 870.8,-204.75 623.2,-204.75 623.2,-204.75 617.2,-204.75 611.2,-198.75 611.2,-192.75 611.2,-192.75 611.2,-43.75 611.2,-43.75 611.2,-37.75 617.2,-31.75 623.2,-31.75"/>
<text text-anchor="middle" x="645.45" y="-189.35" font-family="Sans-Serif" font-size="12.00" fill="#2d3436">Mastodon</text>
</g>
<!-- af97b527ad664f7280dac74fcc1c610d -->
<g id="node1" class="node">
<title>af97b527ad664f7280dac74fcc1c610d</title>
<image xlink:href="/Users/raphaelb/.pyenv/versions/3.10.3/lib/python3.10/site-packages/resources/aws/storage/simple-storage-service-s3-bucket-with-objects.png" width="100.8px" height="100.8px" preserveAspectRatio="xMinYMin meet" x="464.4" y="-248.15"/>
<text text-anchor="middle" x="514.8" y="-130.5" font-family="Sans-Serif" font-size="13.00" fill="#2d3436">TipsBucket</text>
</g>
<!-- ab4e3edff93544a68140e0dadf76731a -->
<g id="node5" class="node">
<title>ab4e3edff93544a68140e0dadf76731a</title>
<image xlink:href="/Users/raphaelb/.pyenv/versions/3.10.3/lib/python3.10/site-packages/resources/aws/compute/lambda-function.png" width="100.8px" height="100.8px" preserveAspectRatio="xMinYMin meet" x="619.2" y="-339.15"/>
<text text-anchor="middle" x="669.6" y="-221.5" font-family="Sans-Serif" font-size="13.00" fill="#2d3436">TweetTipLambda</text>
</g>
<!-- af97b527ad664f7280dac74fcc1c610d&#45;&gt;ab4e3edff93544a68140e0dadf76731a -->
<g id="edge4" class="edge">
<title>af97b527ad664f7280dac74fcc1c610d&#45;&gt;ab4e3edff93544a68140e0dadf76731a</title>
<path fill="none" stroke="#7b8894" d="M565.06,-243.25C565.06,-243.25 608.33,-243.25 608.33,-243.25"/>
<polygon fill="#7b8894" stroke="#7b8894" points="608.33,-246.75 618.33,-243.25 608.33,-239.75 608.33,-246.75"/>
</g>
<!-- 1c642ad6014d419d99aaec98ecb08ab0 -->
<g id="node7" class="node">
<title>1c642ad6014d419d99aaec98ecb08ab0</title>
<image xlink:href="/Users/raphaelb/.pyenv/versions/3.10.3/lib/python3.10/site-packages/resources/aws/compute/lambda-function.png" width="100.8px" height="100.8px" preserveAspectRatio="xMinYMin meet" x="619.2" y="-158.15"/>
<text text-anchor="middle" x="669.6" y="-40.5" font-family="Sans-Serif" font-size="13.00" fill="#2d3436">Mastodon</text>
</g>
<!-- af97b527ad664f7280dac74fcc1c610d&#45;&gt;1c642ad6014d419d99aaec98ecb08ab0 -->
<g id="edge6" class="edge">
<title>af97b527ad664f7280dac74fcc1c610d&#45;&gt;1c642ad6014d419d99aaec98ecb08ab0</title>
<path fill="none" stroke="#7b8894" d="M565.06,-152.75C565.06,-152.75 608.33,-152.75 608.33,-152.75"/>
<polygon fill="#7b8894" stroke="#7b8894" points="608.33,-156.25 618.33,-152.75 608.33,-149.25 608.33,-156.25"/>
</g>
<!-- baa19a6161d348bd9191800835fb127e -->
<g id="node2" class="node">
<title>baa19a6161d348bd9191800835fb127e</title>
<image xlink:href="/Users/raphaelb/.pyenv/versions/3.10.3/lib/python3.10/site-packages/resources/aws/integration/eventbridge.png" width="100.8px" height="100.8px" preserveAspectRatio="xMinYMin meet" x="-2.84217e-14" y="-248.15"/>
<text text-anchor="middle" x="50.4" y="-130.5" font-family="Sans-Serif" font-size="13.00" fill="#2d3436">Once, every day at 10AM CST</text>
</g>
<!-- b0d9747c1d794a22a8f4f2b7d6d8717c -->
<g id="node3" class="node">
<title>b0d9747c1d794a22a8f4f2b7d6d8717c</title>
<image xlink:href="/Users/raphaelb/.pyenv/versions/3.10.3/lib/python3.10/site-packages/resources/aws/compute/lambda-function.png" width="100.8px" height="100.8px" preserveAspectRatio="xMinYMin meet" x="154.8" y="-248.15"/>
<text text-anchor="middle" x="205.2" y="-130.5" font-family="Sans-Serif" font-size="13.00" fill="#2d3436">PickTipsLambda</text>
</g>
<!-- baa19a6161d348bd9191800835fb127e&#45;&gt;b0d9747c1d794a22a8f4f2b7d6d8717c -->
<g id="edge1" class="edge">
<title>baa19a6161d348bd9191800835fb127e&#45;&gt;b0d9747c1d794a22a8f4f2b7d6d8717c</title>
<path fill="none" stroke="#7b8894" d="M100.66,-197.75C100.66,-197.75 143.93,-197.75 143.93,-197.75"/>
<polygon fill="#7b8894" stroke="#7b8894" points="143.93,-201.25 153.93,-197.75 143.93,-194.25 143.93,-201.25"/>
</g>
<!-- 071020cb64b44f4ca96d25f4e77152bb -->
<g id="node4" class="node">
<title>071020cb64b44f4ca96d25f4e77152bb</title>
<image xlink:href="/Users/raphaelb/.pyenv/versions/3.10.3/lib/python3.10/site-packages/resources/aws/storage/simple-storage-service-s3-object.png" width="100.8px" height="100.8px" preserveAspectRatio="xMinYMin meet" x="309.6" y="-248.15"/>
<text text-anchor="middle" x="360" y="-130.5" font-family="Sans-Serif" font-size="13.00" fill="#2d3436">tip&#45;of&#45;the&#45;day.json</text>
</g>
<!-- b0d9747c1d794a22a8f4f2b7d6d8717c&#45;&gt;071020cb64b44f4ca96d25f4e77152bb -->
<g id="edge2" class="edge">
<title>b0d9747c1d794a22a8f4f2b7d6d8717c&#45;&gt;071020cb64b44f4ca96d25f4e77152bb</title>
<path fill="none" stroke="#7b8894" d="M255.46,-197.75C255.46,-197.75 298.73,-197.75 298.73,-197.75"/>
<polygon fill="#7b8894" stroke="#7b8894" points="298.73,-201.25 308.73,-197.75 298.73,-194.25 298.73,-201.25"/>
</g>
<!-- 071020cb64b44f4ca96d25f4e77152bb&#45;&gt;af97b527ad664f7280dac74fcc1c610d -->
<g id="edge3" class="edge">
<title>071020cb64b44f4ca96d25f4e77152bb&#45;&gt;af97b527ad664f7280dac74fcc1c610d</title>
<path fill="none" stroke="#7b8894" d="M410.26,-197.75C410.26,-197.75 453.53,-197.75 453.53,-197.75"/>
<polygon fill="#7b8894" stroke="#7b8894" points="453.53,-201.25 463.53,-197.75 453.53,-194.25 453.53,-201.25"/>
</g>
<!-- a5b4663a773d4df980fce9702760fc8b -->
<g id="node6" class="node">
<title>a5b4663a773d4df980fce9702760fc8b</title>
<image xlink:href="/Users/raphaelb/.pyenv/versions/3.10.3/lib/python3.10/site-packages/resources/saas/social/twitter.png" width="100.8px" height="100.8px" preserveAspectRatio="xMinYMin meet" x="774" y="-339.15"/>
<text text-anchor="middle" x="824.4" y="-221.5" font-family="Sans-Serif" font-size="13.00" fill="#2d3436">@DailyAwsTips</text>
</g>
<!-- ab4e3edff93544a68140e0dadf76731a&#45;&gt;a5b4663a773d4df980fce9702760fc8b -->
<g id="edge5" class="edge">
<title>ab4e3edff93544a68140e0dadf76731a&#45;&gt;a5b4663a773d4df980fce9702760fc8b</title>
<path fill="none" stroke="#7b8894" d="M719.86,-288.75C719.86,-288.75 763.13,-288.75 763.13,-288.75"/>
<polygon fill="#7b8894" stroke="#7b8894" points="763.13,-292.25 773.13,-288.75 763.13,-285.25 763.13,-292.25"/>
</g>
<!-- 220adedbbaf14ca88e9c9d05b9d8e3ad -->
<g id="node8" class="node">
<title>220adedbbaf14ca88e9c9d05b9d8e3ad</title>
<image xlink:href="./mastodon-icon.png" width="100.8px" height="100.8px" preserveAspectRatio="xMinYMin meet" x="774" y="-158.15"/>
<text text-anchor="middle" x="824.4" y="-40.5" font-family="Sans-Serif" font-size="13.00" fill="#2d3436">@DailyAwsTips@mastodon.online</text>
</g>
<!-- 1c642ad6014d419d99aaec98ecb08ab0&#45;&gt;220adedbbaf14ca88e9c9d05b9d8e3ad -->
<g id="edge7" class="edge">
<title>1c642ad6014d419d99aaec98ecb08ab0&#45;&gt;220adedbbaf14ca88e9c9d05b9d8e3ad</title>
<path fill="none" stroke="#7b8894" d="M719.86,-107.75C719.86,-107.75 763.13,-107.75 763.13,-107.75"/>
<polygon fill="#7b8894" stroke="#7b8894" points="763.13,-111.25 773.13,-107.75 763.13,-104.25 763.13,-111.25"/>
</g>
</g>
</svg>
